<svg height='100px' width='100px'  fill="#000000" xmlns="http://www.w3.org/2000/svg" xmlns:xlink="http://www.w3.org/1999/xlink" version="1.1" x="0px" y="0px" viewBox="0 0 100 100" enable-background="new 0 0 100 100" xml:space="preserve"><path d="M23.629,28.982c-0.732-0.733-1.918-0.733-2.65,0c-0.733,0.732-0.733,1.919,0,2.651l15.911,15.91  c0.732,0.732,1.92,0.732,2.652,0s0.732-1.919,0-2.651l-1.326-1.326l10.605-10.607l1.325,1.326c0.732,0.734,1.92,0.734,2.652,0  c0.732-0.732,0.732-1.917,0-2.651L36.89,15.724c-0.732-0.732-1.919-0.732-2.651,0c-0.732,0.734-0.732,1.919,0,2.653l1.326,1.325  l-10.61,10.605L23.629,28.982z"></path><path d="M43.518,6.443c-1.464-1.465-3.838-1.467-5.302,0c-1.465,1.465-1.465,3.838,0,5.303l18.56,18.562  c1.465,1.465,3.838,1.467,5.306,0c1.466-1.464,1.462-3.838,0-5.302L43.518,6.443z"></path><path d="M11.697,32.959c-1.465,1.466-1.465,3.839,0,5.305l18.563,18.562c1.466,1.465,3.838,1.465,5.304,0  c1.465-1.467,1.465-3.84,0-5.305L17.001,32.959C15.535,31.497,13.162,31.494,11.697,32.959z"></path><path d="M62.081,67.431l21.213,21.215c1.465,1.463,3.838,1.465,5.303,0l5.307-5.305c1.464-1.464,1.46-3.838,0-5.302L72.688,56.826  c-1.465-1.465-3.838-1.467-5.303,0L48.821,38.264l-5.304,5.303L62.081,62.13C60.613,63.597,60.617,65.969,62.081,67.431z"></path><path d="M8.75,83.406v3.75c-2.073,0-3.75,1.679-3.75,3.75c0,2.071,1.677,3.75,3.75,3.75h37.501c2.071,0,3.749-1.679,3.749-3.75  c0-2.071-1.678-3.75-3.749-3.75v-3.75c0-2.073-1.678-3.75-3.75-3.75H12.5C10.428,79.656,8.75,81.333,8.75,83.406z"></path></svg>